<svg xmlns="http://www.w3.org/2000/svg" version="1.1" xmlns:xlink="http://www.w3.org/1999/xlink" xmlns:svgjs="http://svgjs.com/svgjs" width="512" height="512" x="0" y="0" viewBox="0 0 32 32" style="enable-background:new 0 0 512 512" xml:space="preserve" class=""><g><path d="M19.508 8.34H7.949l1.172-1.743a1.533 1.533 0 0 0-1.268-2.393H7.85a1.67 1.67 0 0 0-1.304.627L2.939 9.34a.8.8 0 0 0 0 1l3.607 4.508a1.67 1.67 0 0 0 1.304.627h.003a1.533 1.533 0 0 0 1.268-2.393L7.95 11.339h11.559a6.728 6.728 0 1 1 0 13.456h-3.272a1.5 1.5 0 0 0 0 3h3.272a9.728 9.728 0 1 0 0-19.456z" data-name="Arrow Outline" fill="#FFFFFF" data-original="#FFFFFF" class=""></path></g></svg>