<svg xmlns="http://www.w3.org/2000/svg" version="1.1" xmlns:xlink="http://www.w3.org/1999/xlink" xmlns:svgjs="http://svgjs.com/svgjs" width="512" height="512" x="0" y="0" viewBox="0 0 32 32" style="enable-background:new 0 0 512 512" xml:space="preserve" class=""><g><path d="M28.068,12H27.94a.934.934,0,0,1-.864-.6.924.924,0,0,1,.2-1.01l.091-.091a2.938,2.938,0,0,0,0-4.147l-1.511-1.51a2.935,2.935,0,0,0-4.146,0l-.091.091A.956.956,0,0,1,20,4.061V3.932A2.935,2.935,0,0,0,17.068,1H14.932A2.935,2.935,0,0,0,12,3.932v.129a.956.956,0,0,1-1.614.668L10.3,4.638a2.935,2.935,0,0,0-4.146,0L4.638,6.148a2.938,2.938,0,0,0,0,4.147l.091.091a.935.935,0,0,1,.185,1.035A.924.924,0,0,1,4.06,12H3.932A2.935,2.935,0,0,0,1,14.932v2.136A2.935,2.935,0,0,0,3.932,20H4.06a.934.934,0,0,1,.864.6.924.924,0,0,1-.2,1.01l-.091.091a2.938,2.938,0,0,0,0,4.147l1.51,1.509a2.934,2.934,0,0,0,4.147,0l.091-.091a.936.936,0,0,1,1.035-.185.922.922,0,0,1,.579.853v.129A2.935,2.935,0,0,0,14.932,31h2.136A2.935,2.935,0,0,0,20,28.068v-.129a.956.956,0,0,1,1.614-.668l.091.091a2.935,2.935,0,0,0,4.146,0l1.511-1.509a2.938,2.938,0,0,0,0-4.147l-.091-.091a.935.935,0,0,1-.185-1.035A.924.924,0,0,1,27.94,20h.128A2.935,2.935,0,0,0,31,17.068V14.932A2.935,2.935,0,0,0,28.068,12ZM29,17.068a.933.933,0,0,1-.932.932H27.94a2.956,2.956,0,0,0-2.083,5.028l.09.091a.934.934,0,0,1,0,1.319l-1.511,1.509a.932.932,0,0,1-1.318,0l-.09-.091A2.957,2.957,0,0,0,18,27.939v.129a.933.933,0,0,1-.932.932H14.932A.933.933,0,0,1,14,28.068v-.129a2.951,2.951,0,0,0-5.028-2.082l-.091.091a.934.934,0,0,1-1.318,0l-1.51-1.509a.934.934,0,0,1,0-1.319l.091-.091A2.956,2.956,0,0,0,4.06,18H3.932A.933.933,0,0,1,3,17.068V14.932A.933.933,0,0,1,3.932,14H4.06A2.956,2.956,0,0,0,6.143,8.972l-.09-.091a.933.933,0,0,1,0-1.318L7.563,6.052a.932.932,0,0,1,1.318,0l.09.091A2.957,2.957,0,0,0,14,4.061V3.932A.933.933,0,0,1,14.932,3h2.136A.933.933,0,0,1,18,3.932v.129a2.956,2.956,0,0,0,5.028,2.082l.091-.091a.932.932,0,0,1,1.318,0l1.51,1.511a.933.933,0,0,1,0,1.318l-.091.091A2.956,2.956,0,0,0,27.94,14h.128a.933.933,0,0,1,.932.932Z" fill="#FFFFFF" data-original="#FFFFFF" class=""></path><path d="M16,9a7,7,0,1,0,7,7A7.008,7.008,0,0,0,16,9Zm0,12a5,5,0,1,1,5-5A5.006,5.006,0,0,1,16,21Z" fill="#FFFFFF" data-original="#FFFFFF" class=""></path></g></svg>